<svg width="17" height="17" viewBox="0 0 17 17" fill="none" xmlns="http://www.w3.org/2000/svg">
<path d="M12.78 11.2917L14.5467 9.52332L11.8958 6.87165L14.8417 3.92582L13.075 2.15832L10.1283 5.10415L7.47667 2.45248L5.70833 4.21999L12.78 11.2917ZM11.6008 12.47L4.53 5.39915L2.17333 7.75582L9.24417 14.8267L11.6008 12.47ZM10.1283 2.74748L12.485 0.389985C12.6413 0.233759 12.8532 0.145996 13.0742 0.145996C13.2951 0.145996 13.5071 0.233759 13.6633 0.389985L16.61 3.33665C16.7662 3.49292 16.854 3.70485 16.854 3.92582C16.854 4.14679 16.7662 4.35871 16.61 4.51498L14.2525 6.87165L16.315 8.93415C16.3925 9.01155 16.4539 9.10345 16.4959 9.20462C16.5378 9.30578 16.5594 9.41422 16.5594 9.52373C16.5594 9.63325 16.5378 9.74169 16.4959 9.84285C16.4539 9.94402 16.3925 10.0359 16.315 10.1133L9.83333 16.595C9.67706 16.7512 9.46514 16.839 9.24417 16.839C9.0232 16.839 8.81127 16.7512 8.655 16.595L0.404999 8.34498C0.248774 8.18871 0.161011 7.97679 0.161011 7.75582C0.161011 7.53485 0.248774 7.32292 0.404999 7.16665L6.88667 0.684985C6.96406 0.607504 7.05597 0.546039 7.15713 0.504102C7.2583 0.462165 7.36674 0.440579 7.47625 0.440579C7.58576 0.440579 7.6942 0.462165 7.79537 0.504102C7.89653 0.546039 7.98844 0.607504 8.06583 0.684985L10.1283 2.74748Z" fill="white"/>
</svg>
