<svg width="20" height="20" viewBox="0 0 20 20" fill="none" xmlns="http://www.w3.org/2000/svg">
<g clip-path="url(#clip0_268_3946)">
<path d="M16.6666 14.1667H18.3333V15.8334H1.66663V14.1667H3.33329V8.33341C3.33329 6.5653 4.03567 4.86961 5.28591 3.61937C6.53616 2.36913 8.23185 1.66675 9.99996 1.66675C11.7681 1.66675 13.4638 2.36913 14.714 3.61937C15.9642 4.86961 16.6666 6.5653 16.6666 8.33341V14.1667ZM15 14.1667V8.33341C15 7.00733 14.4732 5.73556 13.5355 4.79788C12.5978 3.8602 11.326 3.33341 9.99996 3.33341C8.67388 3.33341 7.40211 3.8602 6.46443 4.79788C5.52674 5.73556 4.99996 7.00733 4.99996 8.33341V14.1667H15ZM7.49996 17.5001H12.5V19.1667H7.49996V17.5001Z" fill="white"/>
</g>
<defs>
<clipPath id="clip0_268_3946">
<rect width="20" height="20" fill="white"/>
</clipPath>
</defs>
</svg>
