<svg width="36" height="36" viewBox="0 0 36 36" fill="none" xmlns="http://www.w3.org/2000/svg">
<g clip-path="url(#clip0_106_2906)">
<rect x="6.33333" y="15.667" width="4.66667" height="4.66667" rx="1" fill="#8C8C8C"/>
<path d="M8.66667 15.667C9.76661 15.667 10.3166 15.667 10.6583 16.0087C11 16.3504 11 16.9004 11 18.0003C11 19.1003 11 19.6502 10.6583 19.992C10.3166 20.3337 9.76661 20.3337 8.66667 20.3337C7.56672 20.3337 7.01675 20.3337 6.67504 19.992C6.33333 19.6502 6.33333 19.1003 6.33333 18.0003C6.33333 16.9004 6.33333 16.3504 6.67504 16.0087C7.01675 15.667 7.56672 15.667 8.66667 15.667Z" fill="#8C8C8C"/>
</g>
<g clip-path="url(#clip1_106_2906)">
<rect x="6.33333" y="22.667" width="4.66667" height="4.66667" rx="1" fill="#8C8C8C"/>
<path d="M8.66667 22.667C9.76661 22.667 10.3166 22.667 10.6583 23.0087C11 23.3504 11 23.9004 11 25.0003C11 26.1003 11 26.6502 10.6583 26.992C10.3166 27.3337 9.76661 27.3337 8.66667 27.3337C7.56672 27.3337 7.01675 27.3337 6.67504 26.992C6.33333 26.6502 6.33333 26.1003 6.33333 25.0003C6.33333 23.9004 6.33333 23.3504 6.67504 23.0087C7.01675 22.667 7.56672 22.667 8.66667 22.667Z" fill="#8C8C8C"/>
</g>
<g clip-path="url(#clip2_106_2906)">
<rect x="6.33333" y="8.66699" width="4.66667" height="4.66667" rx="1" fill="#8C8C8C"/>
<path d="M8.66667 8.66699C9.76661 8.66699 10.3166 8.66699 10.6583 9.0087C11 9.35041 11 9.90038 11 11.0003C11 12.1003 11 12.6502 10.6583 12.992C10.3166 13.3337 9.76661 13.3337 8.66667 13.3337C7.56672 13.3337 7.01675 13.3337 6.67504 12.992C6.33333 12.6502 6.33333 12.1003 6.33333 11.0003C6.33333 9.90038 6.33333 9.35041 6.67504 9.0087C7.01675 8.66699 7.56672 8.66699 8.66667 8.66699Z" fill="#8C8C8C"/>
</g>
<g clip-path="url(#clip3_106_2906)">
<rect x="12.5555" y="8.66699" width="17.1111" height="4.66667" rx="1" fill="#8C8C8C"/>
<rect x="12.5555" y="8.66699" width="17.1111" height="4.66667" rx="1.55556" fill="#8C8C8C"/>
</g>
<g clip-path="url(#clip4_106_2906)">
<rect x="12.5555" y="15.667" width="17.1111" height="4.66667" rx="1" fill="#8C8C8C"/>
<rect x="12.5555" y="15.667" width="17.1111" height="4.66667" rx="1.55556" fill="#8C8C8C"/>
</g>
<g clip-path="url(#clip5_106_2906)">
<rect x="12.5555" y="22.667" width="17.1111" height="4.66667" rx="1" fill="#8C8C8C"/>
<rect x="12.5555" y="22.667" width="17.1111" height="4.66667" rx="1.55556" fill="#8C8C8C"/>
</g>
<defs>
<clipPath id="clip0_106_2906">
<rect x="6.33333" y="15.667" width="4.66667" height="4.66667" rx="1" fill="white"/>
</clipPath>
<clipPath id="clip1_106_2906">
<rect x="6.33333" y="22.667" width="4.66667" height="4.66667" rx="1" fill="white"/>
</clipPath>
<clipPath id="clip2_106_2906">
<rect x="6.33333" y="8.66699" width="4.66667" height="4.66667" rx="1" fill="white"/>
</clipPath>
<clipPath id="clip3_106_2906">
<rect x="12.5555" y="8.66699" width="17.1111" height="4.66667" rx="1" fill="white"/>
</clipPath>
<clipPath id="clip4_106_2906">
<rect x="12.5555" y="15.667" width="17.1111" height="4.66667" rx="1" fill="white"/>
</clipPath>
<clipPath id="clip5_106_2906">
<rect x="12.5555" y="22.667" width="17.1111" height="4.66667" rx="1" fill="white"/>
</clipPath>
</defs>
</svg>
